<svg width="12" height="14" viewBox="0 0 12 14" fill="none" xmlns="http://www.w3.org/2000/svg">
<path d="M3.9987 2.33333H2.66536C1.92898 2.33333 1.33203 2.93029 1.33203 3.66667V11.6667C1.33203 12.403 1.92898 13 2.66536 13H9.33203C10.0684 13 10.6654 12.403 10.6654 11.6667V3.66667C10.6654 2.93029 10.0684 2.33333 9.33203 2.33333H7.9987M3.9987 2.33333C3.9987 3.06971 4.59565 3.66667 5.33203 3.66667H6.66536C7.40174 3.66667 7.9987 3.06971 7.9987 2.33333M3.9987 2.33333C3.9987 1.59695 4.59565 1 5.33203 1H6.66536C7.40174 1 7.9987 1.59695 7.9987 2.33333M5.9987 7H7.9987M5.9987 9.66667H7.9987M3.9987 7H4.00536M3.9987 9.66667H4.00536" stroke="#A5B1CA" stroke-width="2" stroke-linecap="round"/>
</svg>
